<?xml version="1.0" encoding="UTF-8"?>
<svg width="436px" height="382px" viewBox="0 0 436 382" version="1.1" xmlns="http://www.w3.org/2000/svg"
>
  <!-- Generator: Sketch 55.2 (78181) - https://sketchapp.com -->
  <title>Monetolia-Fav</title>
  <desc>Created with Sketch.</desc>
  <g id="Monetolia-Fav" stroke="none" stroke-width="1" fill="none" fill-rule="evenodd">
    <g id="Group" transform="translate(22.000000, 20.000000)" fill="#FF4308">
      <path
        d="M319.537258,239.489109 C319.537258,256.62232 305.607577,270.528474 288.400324,270.528474 L251.904819,270.528474 L138.802573,270.528474 L102.307069,270.528474 C85.1128221,270.528474 71.1571286,256.62232 71.1571286,239.489109 L71.1571286,101.723579 C71.1571286,73.3151086 106.286978,59.8495973 125.393142,80.922669 L172.956954,133.359107 C184.948706,146.565417 205.758687,146.565417 217.750438,133.359107 L265.301245,80.922669 C284.420415,59.8495973 319.537258,73.3151086 319.537258,101.723579 L319.537258,239.489109 Z M308.559993,0 L82.1473998,0 C36.9637287,0 -5.68434189e-14,36.8325152 -5.68434189e-14,81.8557939 L-5.68434189e-14,259.292094 C-5.68434189e-14,304.315373 36.9637287,341.147888 82.1473998,341.147888 L308.559993,341.147888 C353.743664,341.147888 390.720399,304.315373 390.720399,259.292094 L390.720399,81.8557939 C390.720399,36.8325152 353.743664,0 308.559993,0 L308.559993,0 Z"
        id="Fill-19"></path>
      <path
        d="M195.356297,197.507559 C177.199589,197.507559 162.437509,182.784921 162.437509,164.705625 L124.095119,164.705625 C124.095119,203.845033 156.064452,235.687921 195.356297,235.687921 C234.648143,235.687921 266.60447,203.845033 266.60447,164.705625 L228.275086,164.705625 C228.275086,182.784921 213.513006,197.507559 195.356297,197.507559"
        id="Fill-20"></path>
    </g>
  </g>
</svg>
