<svg xmlns="http://www.w3.org/2000/svg" xmlns:xlink="http://www.w3.org/1999/xlink" width="173" height="29" viewBox="0 0 173 29">
    <defs>
        <path id="vqc3fcarla" d="M134.195 346.637h2084c33.137 0 60 26.863 60 60v1086h-2044c-55.228 0-100-44.772-100-100v-1046z"/>
        <path id="182yzhs4rb" d="M0 28.805L172.826 28.805 172.826 0 0 0z"/>
    </defs>
    <g fill="none" fill-rule="evenodd">
        <g>
            <path fill="#FFF" d="M0 0H1920V1210H0z" transform="translate(-408 -30)"/>
            <g>
                <g transform="translate(-408 -30) rotate(3 20378.795 -977.379)">
                    <use fill="#F74F00" transform="rotate(-21 1206.195 919.637)" xlink:href="#vqc3fcarla"/>
                </g>
            </g>
            <g transform="translate(-408 -30) translate(408 30)">
                <path fill="#FFF" d="M34.106 7.442h3.1v1.753c.467-.642 1.067-1.143 1.798-1.504.73-.36 1.563-.541 2.5-.541 1.168 0 2.158.233 2.966.702.809.467 1.427 1.11 1.856 1.928.507-.818 1.184-1.46 2.032-1.928.848-.469 1.817-.702 2.908-.702 2.007 0 3.518.55 4.531 1.65 1.014 1.103 1.52 2.597 1.52 4.487v8.767h-3.185v-8.562c0-1.11-.287-1.992-.863-2.645-.575-.653-1.418-.979-2.529-.979-.992 0-1.822.33-2.485.995-.662.66-.994 1.645-.994 2.95v8.241h-3.157v-8.708c0-1.072-.287-1.919-.862-2.543-.575-.623-1.388-.935-2.44-.935-1.034 0-1.886.341-2.56 1.023-.67.682-1.007 1.695-1.007 3.04v8.123h-3.129V7.442zM66.67 19.424c.623 0 1.207-.12 1.753-.365.546-.244 1.023-.58 1.433-1.008.409-.429.73-.926.964-1.491.233-.565.35-1.17.35-1.812 0-.642-.117-1.246-.35-1.812-.234-.565-.555-1.06-.964-1.49-.41-.428-.887-.763-1.433-1.009-.546-.243-1.13-.364-1.754-.364-.643 0-1.238.121-1.784.364-.546.246-1.018.581-1.418 1.01-.399.429-.71.924-.934 1.49-.225.565-.336 1.169-.336 1.81 0 .644.11 1.248.336 1.813.223.565.535 1.062.934 1.491.4.429.872.764 1.418 1.008.546.244 1.14.365 1.784.365m0 2.923c-1.052 0-2.038-.195-2.953-.585-.915-.389-1.721-.93-2.412-1.622-.692-.692-1.232-1.5-1.622-2.425-.39-.926-.586-1.914-.586-2.967 0-1.07.196-2.07.586-2.994.39-.926.93-1.73 1.622-2.411.691-.683 1.497-1.218 2.412-1.607.915-.39 1.9-.587 2.953-.587s2.037.196 2.954.587c.914.389 1.718.924 2.41 1.607.692.681 1.232 1.485 1.622 2.41.39.925.586 1.925.586 2.995 0 1.053-.196 2.04-.586 2.967-.39.924-.93 1.733-1.622 2.425-.692.692-1.496 1.233-2.41 1.622-.917.39-1.901.585-2.954.585M76.102 7.442H79.2v1.9c.507-.681 1.14-1.217 1.901-1.607.76-.39 1.627-.585 2.601-.585 1.852 0 3.304.56 4.356 1.68 1.053 1.121 1.58 2.685 1.58 4.69v8.534H86.48v-8.27c0-1.207-.298-2.163-.892-2.864-.595-.7-1.476-1.052-2.645-1.052-1.052 0-1.934.37-2.646 1.11-.711.741-1.067 1.753-1.067 3.04v8.036h-3.128V7.442zM99.007 9.926c-1.072 0-1.999.298-2.778.892-.78.595-1.325 1.358-1.638 2.293h8.743c-.274-1.032-.786-1.821-1.536-2.366-.75-.546-1.68-.82-2.791-.82m-.058 12.422c-1.15 0-2.194-.2-3.129-.6-.935-.4-1.73-.939-2.383-1.62-.652-.684-1.154-1.481-1.505-2.398-.351-.915-.526-1.889-.526-2.922 0-1.071.195-2.076.585-3.01.39-.935.92-1.744 1.592-2.426.673-.682 1.473-1.222 2.398-1.622.926-.399 1.924-.6 2.997-.6 1.072 0 2.07.187 2.995.556.927.37 1.725.892 2.398 1.563.672.673 1.198 1.467 1.578 2.383.38.917.57 1.92.57 3.01v1.08H94.39c.174 1.13.661 2.06 1.46 2.792.8.73 1.842 1.095 3.129 1.095 1.012 0 1.856-.223 2.527-.672.674-.447 1.146-1.052 1.418-1.81h3.362c-.565 1.616-1.457 2.888-2.675 3.812-1.217.926-2.77 1.389-4.661 1.389M112.383 21.294L106.332 7.442 109.693 7.442 113.961 17.584 117.996 7.442 121.299 7.442 112.472 28.805 109.255 28.805zM122.926 10.247V.722h3.156v6.72h3.099v2.805h-3.099v5.816c0 .663.035 1.194.103 1.593.068.4.214.706.438.92.225.215.542.357.95.424.41.07.945.103 1.608.103v2.951h-.467c-1.11 0-2.037-.097-2.778-.293-.74-.193-1.335-.52-1.782-.977-.45-.46-.766-1.071-.95-1.842-.186-.77-.278-1.719-.278-2.849v-5.846zM137.466 19.424c.624 0 1.208-.12 1.754-.365.546-.244 1.024-.58 1.433-1.008.409-.429.73-.926.964-1.491.233-.565.35-1.17.35-1.812 0-.642-.117-1.246-.35-1.812-.234-.565-.555-1.06-.964-1.49-.41-.428-.887-.763-1.433-1.009-.546-.243-1.13-.364-1.754-.364-.643 0-1.238.121-1.784.364-.545.246-1.018.581-1.418 1.01-.399.429-.71.924-.934 1.49-.225.565-.336 1.169-.336 1.81 0 .644.111 1.248.336 1.813.224.565.535 1.062.934 1.491.4.429.873.764 1.418 1.008.546.244 1.141.365 1.784.365m0 2.923c-1.052 0-2.036-.195-2.952-.585-.916-.389-1.722-.93-2.413-1.622-.692-.692-1.231-1.5-1.622-2.425-.39-.926-.585-1.914-.585-2.967 0-1.07.195-2.07.585-2.994.39-.926.93-1.73 1.622-2.411.691-.683 1.497-1.218 2.413-1.607.916-.39 1.9-.587 2.952-.587 1.053 0 2.037.196 2.954.587.914.389 1.718.924 2.41 1.607.692.681 1.232 1.485 1.623 2.41.39.925.585 1.925.585 2.995 0 1.053-.196 2.04-.585 2.967-.39.924-.93 1.733-1.623 2.425-.692.692-1.496 1.233-2.41 1.622-.917.39-1.901.585-2.954.585"/>
                <mask id="ht48gi1rcc" fill="#fff">
                    <use xlink:href="#182yzhs4rb"/>
                </mask>
                <path fill="#FFF" d="M146.899 22.055L150.027 22.055 150.027.722 146.899.722zM152.567 22.054h3.158V7.442h-3.158v14.612zm-.526-19.229c0-.623.196-1.13.585-1.52.39-.388.896-.583 1.52-.583s1.13.195 1.52.583c.39.39.585.897.585 1.52 0 .625-.195 1.131-.585 1.52-.39.391-.896.585-1.52.585s-1.13-.194-1.52-.584c-.39-.39-.585-.896-.585-1.52zM165.254 19.483c.663 0 1.277-.126 1.842-.38.565-.253 1.053-.593 1.462-1.023.409-.429.731-.93.964-1.505.234-.575.35-1.193.35-1.857 0-.642-.116-1.25-.35-1.825-.233-.575-.555-1.077-.964-1.505-.41-.428-.897-.77-1.462-1.023-.565-.253-1.179-.38-1.842-.38-.643 0-1.247.122-1.812.366-.565.243-1.057.579-1.476 1.007-.42.43-.746.932-.979 1.505-.235.575-.35 1.194-.35 1.855 0 .664.115 1.287.35 1.872.233.585.56 1.091.98 1.52.418.427.91.764 1.475 1.007.565.245 1.169.366 1.812.366m-.438 2.864c-.935 0-1.837-.18-2.704-.541-.868-.36-1.643-.867-2.323-1.52-.684-.652-1.229-1.446-1.638-2.381-.41-.936-.613-1.988-.613-3.157 0-1.168.199-2.22.598-3.155.4-.935.936-1.735 1.61-2.398.67-.661 1.45-1.169 2.336-1.518.888-.35 1.809-.527 2.762-.527.976 0 1.892.195 2.75.585.857.39 1.558.926 2.104 1.607v-1.9h3.128v14.612h-3.128v-2.016c-.566.72-1.276 1.285-2.135 1.695-.857.408-1.772.614-2.747.614M21.903 16.468c0 1.18-.955 2.135-2.135 2.135H7.012c-1.179 0-2.134-.955-2.134-2.135V6.996c0-1.955 2.408-2.881 3.717-1.432l3.261 3.606c.822.909 2.248.909 3.07 0l3.259-3.606c1.31-1.45 3.718-.523 3.718 1.432v9.472zM21.097 0H5.684C2.544 0 0 2.545 0 5.682v12.095c0 3.138 2.544 5.683 5.684 5.683h15.413c3.139 0 5.684-2.545 5.684-5.683V5.682C26.78 2.545 24.236 0 21.097 0z" mask="url(#ht48gi1rcc)"/>
                <path fill="#FFF" d="M13.39 16.24c-2.603 0-4.721-2.118-4.721-4.722h2.072c0 1.463 1.19 2.65 2.65 2.65s2.65-1.187 2.65-2.65h2.071c0 2.604-2.118 4.722-4.721 4.722" mask="url(#ht48gi1rcc)"/>
            </g>
        </g>
    </g>
</svg>
